<svg width="40" height="40" viewBox="0 0 40 40" fill="none" xmlns="http://www.w3.org/2000/svg">
<rect width="40" height="40" rx="7.5" fill="#18171A"/>
<path fill-rule="evenodd" clip-rule="evenodd" d="M18.7586 4.33189C19.527 3.88937 20.473 3.88937 21.2415 4.33189L32.9458 11.089C33.7142 11.5315 34.1885 12.3529 34.1885 13.2406V26.7574C34.1885 27.6451 33.7142 28.4639 32.9458 28.9091L21.2415 35.6661C20.473 36.1113 19.527 36.1113 18.7586 35.6661L7.05429 28.9064C6.28584 28.4639 5.81152 27.6424 5.81152 26.7547V13.238C5.81152 12.3503 6.28584 11.5315 7.05429 11.0863L18.7586 4.33189ZM19.6251 6.09668C19.8106 5.77605 20.2716 5.77605 20.4571 6.09668L32.3204 26.6461C32.5059 26.9667 32.2754 27.3669 31.9044 27.3669H8.17782C7.80684 27.3669 7.57631 26.9667 7.7618 26.6461L19.6251 6.09668ZM26.0138 20.154C26.0138 23.4928 23.3083 26.1983 19.9696 26.1983C16.6308 26.1983 13.9253 23.4928 13.9253 20.154C13.9253 16.8152 16.6308 14.1098 19.9696 14.1098C23.3083 14.1098 26.0138 16.8152 26.0138 20.154ZM17.4814 18.0819C17.4814 17.8513 17.6669 17.6658 17.8974 17.6658H22.0417C22.2723 17.6658 22.4577 17.8513 22.4577 18.0819V22.2262C22.4577 22.4567 22.2723 22.6422 22.0417 22.6422H17.8974C17.6669 22.6422 17.4814 22.4567 17.4814 22.2262V18.0819Z" fill="white"/>
</svg>
