<svg width="35" height="40" viewBox="0 0 35 40" fill="none" xmlns="http://www.w3.org/2000/svg">
<path fill-rule="evenodd" clip-rule="evenodd" d="M15.9688 0.414864C16.9166 -0.138288 18.0834 -0.138288 19.0312 0.414864L33.4672 8.86119C34.415 9.41435 35 10.4412 35 11.5508V28.4467C35 29.5564 34.415 30.5799 33.4672 31.1363L19.0312 39.5826C18.0834 40.1391 16.9166 40.1391 15.9688 39.5826L1.53282 31.133C0.585022 30.5799 0 29.553 0 28.4434V11.5475C0 10.4378 0.585022 9.41435 1.53282 8.85788L15.9688 0.414864ZM17.0375 2.62085C17.2663 2.22006 17.835 2.22006 18.0638 2.62085L32.6959 28.3076C32.9246 28.7084 32.6403 29.2086 32.1827 29.2086H2.91857C2.46101 29.2086 2.17667 28.7084 2.40545 28.3076L17.0375 2.62085ZM24.9174 20.1925C24.9174 24.366 21.5804 27.7479 17.4624 27.7479C13.3444 27.7479 10.0075 24.366 10.0075 20.1925C10.0075 16.019 13.3444 12.6372 17.4624 12.6372C21.5804 12.6372 24.9174 16.019 24.9174 20.1925ZM14.3935 17.6023C14.3935 17.3141 14.6223 17.0823 14.9066 17.0823H20.0182C20.3025 17.0823 20.5313 17.3141 20.5313 17.6023V22.7827C20.5313 23.0709 20.3025 23.3028 20.0182 23.3028H14.9066C14.6223 23.3028 14.3935 23.0709 14.3935 22.7827V17.6023Z" fill="black"/>
</svg>
